<svg xmlns="http://www.w3.org/2000/svg" viewBox="0 0 100 120">
  <path fill="#e0e0e0" d="M85,120 H15 C10,120 10,115 10,115 V100 H90 V115 C90,115 90,120 85,120 Z" />
  <path fill="#d3d3d3" d="M50,10 C25,10 10,30 10,55 C10,80 40,105 50,105 C60,105 90,80 90,55 C90,30 75,10 50,10 Z" />
  <path fill="#c0c0c0" d="M75,20 C60,20 50,35 50,50 C50,65 65,80 75,80 C85,80 95,65 95,50 C95,35 90,20 75,20 Z" />
  <path fill="#b0b0b0" d="M25,25 C15,25 5,40 5,55 C5,70 15,85 25,85 C35,85 45,70 45,55 C45,40 35,25 25,25 Z" />
</svg>